<svg width="47" height="47" viewBox="0 0 47 47" fill="none" xmlns="http://www.w3.org/2000/svg">
<rect x="5.875" y="11.75" width="35.25" height="29.375" rx="2" stroke="#6C615C" stroke-width="2"/>
<path d="M5.875 15.75C5.875 13.8644 5.875 12.9216 6.46079 12.3358C7.04657 11.75 7.98938 11.75 9.875 11.75H37.125C39.0106 11.75 39.9534 11.75 40.5392 12.3358C41.125 12.9216 41.125 13.8644 41.125 15.75V19.5833H5.875V15.75Z" fill="#6C615C"/>
<path d="M13.7084 5.875L13.7084 11.75" stroke="#6C615C" stroke-width="2" stroke-linecap="round"/>
<path d="M33.2916 5.875L33.2916 11.75" stroke="#6C615C" stroke-width="2" stroke-linecap="round"/>
<rect x="13.7084" y="23.5" width="7.83333" height="3.91667" rx="0.5" fill="#6C615C"/>
<rect x="13.7084" y="31.3333" width="7.83333" height="3.91667" rx="0.5" fill="#6C615C"/>
<rect x="25.4584" y="23.5" width="7.83333" height="3.91667" rx="0.5" fill="#6C615C"/>
<rect x="25.4584" y="31.3333" width="7.83333" height="3.91667" rx="0.5" fill="#6C615C"/>
</svg>
