<svg width="41" height="35" viewBox="0 0 41 35" fill="none" xmlns="http://www.w3.org/2000/svg">
<path d="M0 16.4522C0 17.1355 0.549644 17.7854 1.47717 17.7854C1.95811 17.7854 2.35316 17.5354 2.71387 17.2521L19.9074 3.25378C20.2853 2.92049 20.7491 2.92049 21.1269 3.25378L38.3205 17.2521C38.664 17.5354 39.0591 17.7854 39.54 17.7854C40.3473 17.7854 41 17.3021 41 16.5022C41 16.0023 40.8282 15.669 40.4675 15.369L35.6581 11.4361V4.77027C35.6581 4.03702 35.1772 3.57041 34.4214 3.57041H32.5836C31.845 3.57041 31.3469 4.03702 31.3469 4.77027V7.91989L22.5869 0.787406C21.3159 -0.262469 19.7357 -0.262469 18.4474 0.787406L0.549644 15.369C0.171764 15.669 0 16.0689 0 16.4522ZM5.35903 31.3338C5.35903 33.6335 6.80184 35 9.22371 35H31.8106C34.2325 35 35.6581 33.6335 35.6581 31.3338V18.1187L21.5392 6.63671C20.8865 6.10344 20.1135 6.1201 19.478 6.63671L5.35903 18.1187V31.3338ZM24.9401 32.317H16.0771V21.3016C16.0771 20.5351 16.6096 20.0351 17.3997 20.0351H23.6347C24.4248 20.0351 24.9401 20.5351 24.9401 21.3016V32.317Z" fill="#6C615C"/>
</svg>
