<svg width="40" height="37" viewBox="0 0 40 37" fill="none" xmlns="http://www.w3.org/2000/svg">
<path d="M31.5992 10.24C34.41 10.24 36.6885 8.00893 36.6885 5.25671C36.6885 2.50449 34.41 0.273376 31.5992 0.273376C28.7884 0.273376 26.5098 2.50449 26.5098 5.25671C26.5098 8.00893 28.7884 10.24 31.5992 10.24Z" fill="#6C615C"/>
<path d="M23.7075 18.2335C24.6042 14.7844 27.7975 12.2334 31.5992 12.2334C35.4009 12.2334 38.5941 14.7844 39.4909 18.2335C39.7683 19.3004 38.8307 20.2067 37.7064 20.2067H25.492C24.3676 20.2067 23.4301 19.3004 23.7075 18.2335Z" fill="#6C615C"/>
<path d="M11.9498 22.2C16.1049 22.2 19.4732 18.9018 19.4732 14.8333C19.4732 10.7648 16.1049 7.46664 11.9498 7.46664C7.79478 7.46664 4.42644 10.7648 4.42644 14.8333C4.42644 18.9018 7.79478 22.2 11.9498 22.2Z" fill="#6C615C"/>
<path d="M0.283836 34.0165C1.6095 28.9177 6.32992 25.1466 11.9498 25.1466C17.5698 25.1466 22.2902 28.9177 23.6159 34.0165C24.0259 35.5936 22.64 36.9333 20.9779 36.9333H2.92176C1.25974 36.9333 -0.126202 35.5936 0.283836 34.0165Z" fill="#6C615C"/>
</svg>
